<?xml version="1.0" encoding="UTF-8" standalone="no"?>
<svg
   data-name="Layer 1"
   viewBox="0 0 96 120"
   x="0px"
   y="0px"
   version="1.1"
   id="svg2"
   sodipodi:docname="noun-protection-5540342.svg"
   inkscape:version="1.3 (0e150ed6c4, 2023-07-21)"
   xmlns:inkscape="http://www.inkscape.org/namespaces/inkscape"
   xmlns:sodipodi="http://sodipodi.sourceforge.net/DTD/sodipodi-0.dtd"
   xmlns="http://www.w3.org/2000/svg"
   xmlns:svg="http://www.w3.org/2000/svg">
  <defs
     id="defs2" />
  <sodipodi:namedview
     id="namedview2"
     pagecolor="#ffffff"
     bordercolor="#000000"
     borderopacity="0.25"
     inkscape:showpageshadow="2"
     inkscape:pageopacity="0.0"
     inkscape:pagecheckerboard="0"
     inkscape:deskcolor="#d1d1d1"
     inkscape:zoom="6.475"
     inkscape:cx="47.953668"
     inkscape:cy="60"
     inkscape:window-width="1920"
     inkscape:window-height="991"
     inkscape:window-x="-9"
     inkscape:window-y="-9"
     inkscape:window-maximized="1"
     inkscape:current-layer="svg2" />
  <path
     d="M85.4,22.5a1.648,1.648,0,0,0-1.555-1.23c-12.715-.3-24.985-7.1-34.549-19.148a1.649,1.649,0,0,0-2.582,0c-9.564,12.05-21.834,18.85-34.549,19.148a1.648,1.648,0,0,0-1.555,1.23A58.121,58.121,0,0,0,9.422,44.379a70.113,70.113,0,0,0,6.5,21.626A61.327,61.327,0,0,0,28.982,83.9a43.813,43.813,0,0,0,18.6,10.543,1.654,1.654,0,0,0,.846,0A43.813,43.813,0,0,0,67.018,83.9a61.327,61.327,0,0,0,13.056-17.9,70.113,70.113,0,0,0,6.5-21.626A58.121,58.121,0,0,0,85.4,22.5ZM73.825,62.948A55.435,55.435,0,0,1,63.6,77.529a38.259,38.259,0,0,1-15.085,9.632,1.658,1.658,0,0,1-1.036,0A38.259,38.259,0,0,1,32.4,77.529,55.435,55.435,0,0,1,22.175,62.948C16.924,52.214,14.8,39.9,16.348,29.165a1.647,1.647,0,0,1,1.393-1.395c10.481-1.525,20.542-6.835,29.1-15.355a1.647,1.647,0,0,1,2.326,0c8.554,8.52,18.615,13.83,29.1,15.355a1.647,1.647,0,0,1,1.393,1.395C81.2,39.9,79.076,52.214,73.825,62.948ZM48,15.88c-8.466,8.041-18.282,13.184-28.546,14.954-1.137,9.81.909,20.912,5.681,30.665C30.523,72.512,38.833,80.628,48,83.856,57.167,80.628,65.477,72.512,70.865,61.5c4.772-9.753,6.818-20.855,5.681-30.665C66.282,29.064,56.466,23.921,48,15.88Zm0,52.884A18.217,18.217,0,1,1,66.217,50.547,18.237,18.237,0,0,1,48,68.764Zm0-33.139A14.922,14.922,0,1,0,62.922,50.547,14.939,14.939,0,0,0,48,35.625ZM58.233,46,46.814,57.422a1.649,1.649,0,0,1-2.33,0L38.693,51.63a1.648,1.648,0,0,1,2.33-2.33l4.626,4.626L55.9,43.673A1.648,1.648,0,0,1,58.233,46Z"
     id="path1" />
</svg>
